HIERARCHY
ROOT Hips
{
  OFFSET 0 0 0
  CHANNELS 6 Xposition Yposition Zposition Xrotation Yrotation Zrotation
  End Site
  {
    OFFSET 0 10 0
  }
}
MOTION
Frames: 3
Frame Time: 0.0166667
0 0 0 0 0 0
5 0 0 0 0 0
10 1 0 0 15 0
